<?xml version="1.0" encoding="UTF-8"?>
<!DOCTYPE svg PUBLIC "-//W3C//DTD SVG 1.1//EN" "http://www.w3.org/Graphics/SVG/1.1/DTD/svg11.dtd">
<!-- Creator: CorelDRAW 2019 (64-Bit) -->
<svg xmlns="http://www.w3.org/2000/svg" xml:space="preserve" width="10in" height="10in" version="1.1" style="shape-rendering:geometricPrecision; text-rendering:geometricPrecision; image-rendering:optimizeQuality; fill-rule:evenodd; clip-rule:evenodd"
viewBox="0 0 10000 10000"
 xmlns:xlink="http://www.w3.org/1999/xlink"
 xmlns:xodm="http://www.corel.com/coreldraw/odm/2003">
 <defs>
  <style type="text/css">
   <![CDATA[
    .fil0 {fill:#CF5957}
   ]]>
  </style>
 </defs>
 <g id="Layer_x0020_1">
  <metadata id="CorelCorpID_0Corel-Layer"/>
  <path class="fil0" d="M5077.58 271.49c359.5,148.68 639.53,490.99 798.78,835.37 183.34,396.52 181.43,795.95 7.72,1194.2 -51.71,118.55 -118.41,232.85 -164.61,353.5 -43.98,132.79 -62.72,328.88 -96.15,474.35 -19.51,85.06 -52.7,236.61 -56.3,323.98 -0.38,10.18 6.81,11.22 17.59,18.23 37.48,-3.19 304.12,-157.63 340.15,-183.27 271,-193 829,-324 1020.6,-576.51 690.01,-909.09 1876.59,-814.34 2722.04,-196.94 83.68,61.07 168.2,123.27 239.64,201.8 -103.03,228.7 -380.15,513.57 -561.97,672.79 -589.89,516.47 -1421.71,658.43 -2112.11,250.85 -246.76,-145.68 -179.91,-184.89 41.38,-304.79 275.82,-149.44 564.04,-240.67 863.19,-329.11 132.86,-40.26 327.53,-74.61 446.47,-130.58l10.17 -4.83c-594.94,-109.81 -1475.79,218.39 -1985.68,511.71 -1120.8,644.89 -1931.2,1444.48 -2279.94,2714.28 -90.64,326.76 -129.66,665.69 -115.66,1004.54 1.83,43.45 1.07,195.43 52.17,204.53 107.26,-31.66 261.91,-129.27 365.47,-187.56l597.72 -339.23 1062.67 -606.03c137.15,-78.39 522.73,-275.28 613.06,-375.26 82.68,-92.86 125.52,-214.56 119.09,-338.77 -16.75,-321.87 -325.31,-427.2 -548.35,-556.08 -142.04,-82.15 -497.36,-263.7 -598.71,-354.85 60.97,-113.27 630.89,-539.69 761.76,-580 128.2,32.17 644.76,351.05 764.16,434.59 51.79,35.79 100.51,75.79 145.71,119.59 547.29,527.61 543.46,1408.01 0.54,1935.1 -184.19,178.83 -404.25,285.85 -625.84,410.68l-573.67 323.47 -2038.93 1158.97 -1449.2 827.69 -488.8 276.05c-94.5,52.78 -195.72,113.44 -294.06,157.34 -508.17,227.25 -1169.73,118.56 -1564.3,-278.42 -244.27,-245.83 -384.72,-561.59 -412.43,-905.02 -11.19,-138.68 -7.41,-283.78 -7.43,-422.45l-0.04 -629.66 0.12 -4596.41c0.98,-450.57 100.14,-796.48 426.67,-1129.65 245.33,-250.33 657.73,-402.04 1005.63,-397.18 199.26,4 395.99,45.52 579.89,122.38 122.52,52.54 280.11,149.29 399.04,218.46l519.13 298.14c465.97,264.44 930.36,531.69 1393.11,801.72 86.23,50.97 222.69,125.22 279.03,182.78 -64.64,227.45 -242.3,626.93 -391.13,809.95 -65.63,-29.38 -50.3,-30.2 -115.91,-67.96l-411.85 -235.81 -1463.21 -838.26c-136.83,-78.75 -449.4,-272.56 -580.87,-331.11 -62,-28.12 -128.72,-44.37 -196.7,-47.92 -145.89,-6.97 -250.19,40.36 -359.5,135.25 -117.52,102.01 -147.8,233.6 -151.75,383.2 -3.69,139.46 -1.87,284.58 -1.69,425.41l0.63 745.4 0.61 2348.46 -0.1 1415.9c-0.17,174.09 -10.85,590.43 7.24,747.15 13.56,110.3 61.13,213.63 136.11,295.71 154.18,165.76 402.02,175.93 594.06,81.92 112.74,-55.23 211.89,-111.9 320.64,-174.02l491.78 -282.01c146.11,-83.91 679.24,-376.1 774.98,-466.44 39.51,-100.13 34.48,-482.57 41.91,-615.06 8.93,-154.28 24.13,-308.1 45.55,-461.15 29.42,-209.13 63.43,-359.73 53.79,-575.74 -10.18,-202.31 -52.68,-401.73 -125.87,-590.58 -121.09,-313.83 -420.56,-796.77 -732.59,-936 41.78,85.86 106.08,194.66 155.79,275.28 113.67,184.49 392.02,703.17 337.89,906.48 -22.93,13.92 -40.24,15.52 -67.2,11.16 -937.76,-152.36 -1342.57,-1092.38 -1230.52,-1957.84 5.29,-157.68 197.98,-116.78 310.83,-105.19 756.76,77.65 1495.09,608.44 1590.8,1402.7 6.48,53.77 30.06,250.19 91.03,256.09 52.96,-47.35 158.91,-275.67 201.77,-353.69 53.42,-96.6 109.38,-191.83 167.82,-285.51 197.9,-314.4 503.87,-665.69 679.96,-972.37 113.18,-200.68 208.71,-410.79 285.58,-627.97 164.84,-458.31 256.63,-899.88 212.95,-1390.06 -12.16,-136.5 -41.53,-293.41 -100.35,-418.11 -27.54,121.81 -34.27,319.15 -43.91,449.82 -12.62,192.88 -38.78,384.63 -78.32,573.84 -12.17,57.7 -26.17,172.47 -92.4,180.33 -59.43,-18.91 -141.66,-113.33 -183.55,-161.41 -248.85,-285.49 -354.47,-592.79 -329.18,-970.27 25.76,-384.34 245.02,-931.99 536.37,-1184.11z"/>
 </g>
</svg>
