<?xml version="1.0" encoding="UTF-8"?>
<!DOCTYPE svg PUBLIC "-//W3C//DTD SVG 1.1//EN" "http://www.w3.org/Graphics/SVG/1.1/DTD/svg11.dtd">
<!-- Creator: CorelDRAW 2019 (64-Bit) -->
<svg xmlns="http://www.w3.org/2000/svg" xml:space="preserve" width="7.292in" height="7.292in" version="1.1" style="shape-rendering:geometricPrecision; text-rendering:geometricPrecision; image-rendering:optimizeQuality; fill-rule:evenodd; clip-rule:evenodd"
viewBox="0 0 7292 7292"
 xmlns:xlink="http://www.w3.org/1999/xlink"
 xmlns:xodm="http://www.corel.com/coreldraw/odm/2003">
 <defs>
  <style type="text/css">
   <![CDATA[
    .fil0 {fill:#21759B}
   ]]>
  </style>
 </defs>
 <g id="Layer_x0020_1">
  <metadata id="CorelCorpID_0Corel-Layer"/>
  <path class="fil0" d="M0.13 3645.9c0,1443.17 838.69,2690.35 2054.86,3281.37l-1739.2 -4765.19c-202.3,453.44 -315.66,955.24 -315.66,1483.82l-0 0z"/>
  <path class="fil0" d="M6107.48 3461.91c0,-450.6 -161.85,-762.65 -300.68,-1005.54 -184.82,-300.33 -358.05,-554.67 -358.05,-855 0,-335.16 254.2,-647.14 612.25,-647.14 16.17,0 31.5,2.01 47.24,2.91 -648.67,-594.28 -1512.89,-957.12 -2462.1,-957.12 -1273.75,0 -2394.39,653.53 -3046.32,1643.39 85.54,2.57 166.16,4.37 234.63,4.37 381.36,0 971.69,-46.28 971.69,-46.28 196.54,-11.59 219.72,277.09 23.38,300.33 0,0 -197.52,23.24 -417.3,34.76l1327.72 3949.25 797.9 -2393 -568.06 -1556.39c-196.33,-11.52 -382.33,-34.76 -382.33,-34.76 -196.47,-11.52 -173.44,-311.92 23.03,-300.33 0,0 602.12,46.28 960.38,46.28 381.29,0 971.69,-46.28 971.69,-46.28 196.68,-11.59 219.78,277.09 23.38,300.33 0,0 -197.93,23.24 -417.3,34.76l1317.6 3919.35 363.67 -1215.27c157.62,-504.3 277.57,-866.51 277.57,-1178.64l0.01 0.01z"/>
  <path class="fil0" d="M3710.1 3964.82l-1093.93 3178.76c326.63,96.02 672.05,148.54 1029.96,148.54 424.58,0 831.76,-73.4 1210.76,-206.67 -9.78,-15.61 -18.66,-32.19 -25.94,-50.23l-1120.84 -3070.39z"/>
  <path class="fil0" d="M6845.36 1896.64c15.68,116.14 24.56,240.81 24.56,374.91 0,369.98 -69.1,785.9 -277.23,1305.94l-1113.7 3219.97c1083.94,-632.09 1813.02,-1806.43 1813.02,-3151.49 0.07,-633.89 -161.85,-1229.98 -446.65,-1749.33z"/>
 </g>
</svg>
